# xmcd
#
# Track frame offsets:
#	150
#	25769
#	58603
#	93396
#	129772
#	156951
#	190986
#	201783
#	219833
#	241522
#	261114
#
# Disc length: 3691 seconds
#
# Revision: 0
# Processed by: cddbd v1.5.2PL0 Copyright (c) Steve Scherf et al.
# Submitted via: audiograbber 1.83.01
#
DISCID=880e690b
DTITLE=Soul Stew Revival - DTB070615D1
DYEAR=2007
DGENRE=
TTITLE0=Stand Back
TTITLE1=Little by Little
TTITLE2=I WIsh I knew
TTITLE3=Blind Crippled and Crazy
TTITLE4=Cold Day in Hell
TTITLE5=Tell the Truth
TTITLE6=Walking Blues
TTITLE7=Soul of a Man
TTITLE8=Meet Me at the Bottom
TTITLE9=Locomotive
TTITLE10=You Got the Silver
EXTD=
EXTT0=
EXTT1=
EXTT2=
EXTT3=
EXTT4=
EXTT5=
EXTT6=
EXTT7=
EXTT8=
EXTT9=
EXTT10=
PLAYORDER=
